<svg width="1160" height="650" viewBox="0 0 1160 650" fill="none" xmlns="http://www.w3.org/2000/svg">
<g clip-path="url(#clip0_1_1203)">
<mask id="mask0_1_1203" style="mask-type:luminance" maskUnits="userSpaceOnUse" x="0" y="0" width="1160" height="650">
<path d="M1160 0H0V650H1160V0Z" fill="white"/>
</mask>
<g mask="url(#mask0_1_1203)">
<mask id="mask1_1_1203" style="mask-type:luminance" maskUnits="userSpaceOnUse" x="0" y="0" width="1160" height="650">
<path d="M1160 0H0V650H1160V0Z" fill="white"/>
</mask>
<g mask="url(#mask1_1_1203)">
<path d="M1160 0H0V650H1160V0Z" fill="black"/>
<path d="M1059.43 53.4372L1052.02 67L1044.57 53.4372L1031 46.016L1044.57 38.5948L1052.02 25L1059.43 38.5948L1073 46.016L1059.43 53.4372Z" fill="#FCFCFC"/>
<path d="M637.517 65.5308L628.519 82L619.483 65.5308L603 56.5194L619.483 47.508L628.519 31L637.517 47.508L654 56.5194L637.517 65.5308Z" fill="#FCFCFC"/>
<path d="M1114.3 77.3123L1109.01 87L1103.7 77.3123L1094 72.0114L1103.7 66.7106L1109.01 57L1114.3 66.7106L1124 72.0114L1114.3 77.3123Z" fill="#57092C"/>
<path fill-rule="evenodd" clip-rule="evenodd" d="M463.285 84.946C471.981 90.6455 494.636 86.0281 492.906 71.692C490.758 53.8879 468.926 56.5763 468.926 56.5763C474.077 45.3185 473.796 15.9541 466.027 15.0265C458.258 14.0923 439.337 38.0194 438.874 55.2791C438.874 55.2791 401 52.5772 401 61.3281C401 70.0857 420.645 81.8073 437.522 82.8625C437.522 82.8625 436.203 103.765 452.284 97.9917C463.631 93.9254 463.285 84.946 463.285 84.946Z" fill="#57092C"/>
<path d="M144.426 53.4372L137.016 67L129.574 53.4372L116 46.016L129.574 38.5948L137.016 25L144.426 38.5948L158 46.016L144.426 53.4372Z" fill="#57092C"/>
<path d="M1045.54 112.542L1042.01 119L1038.46 112.542L1032 109.008L1038.46 105.474L1042.01 99L1045.54 105.474L1052 109.008L1045.54 112.542Z" fill="#FCFCFC"/>
<path d="M86.3042 32.3123L81.0114 42L75.6958 32.3123L66 27.0114L75.6958 21.7106L81.0114 12L86.3042 21.7106L96 27.0114L86.3042 32.3123Z" fill="#FCFCFC"/>
<path d="M1084.72 326.694C1056.52 350.893 1027.92 375.092 996.495 402.068C999.717 393.737 1001.33 388.183 1003.75 383.026C1020.26 343.355 1036.38 303.685 1054.1 264.411C1058.13 255.684 1066.59 247.353 1075.05 241.799C1104.45 221.171 1120.97 192.608 1129.83 159.285C1133.06 146.59 1122.18 129.929 1108.89 124.375C1097.61 119.218 1084.31 122.788 1074.24 131.912C1048.46 156.508 1047.25 188.244 1048.86 219.98C1049.67 235.055 1048.46 247.75 1042.02 261.634C1018.65 313.999 996.897 367.554 974.339 420.316C969.505 431.82 963.865 442.928 957.822 456.416C944.126 425.076 951.78 402.068 971.922 379.456C994.48 354.463 999.717 323.52 994.883 290.991C994.078 285.437 990.452 279.883 986.827 275.519C974.339 260.841 955.808 262.825 947.751 279.883C934.861 307.255 922.776 335.421 919.15 365.968C917.136 383.026 916.33 400.084 931.638 413.572C935.263 416.746 936.875 422.696 938.083 427.853C944.932 455.226 952.585 481.012 938.083 509.971C925.595 534.567 920.358 562.336 911.093 590.899C905.856 577.014 900.217 564.716 896.591 552.022C895.383 547.658 897.397 542.104 899.411 537.344C901.022 533.377 906.259 529.806 906.662 525.839C909.482 501.244 912.705 476.251 913.51 451.259C913.913 439.358 896.188 425.473 884.506 424.68C868.795 423.886 851.473 434.201 846.639 448.879C838.18 475.458 832.943 502.83 845.431 532.583C855.905 537.74 867.99 544.088 883.298 552.022C892.966 567.493 900.217 588.519 900.62 610.337C901.022 631.363 896.188 652.388 896.188 675C898.605 671.033 902.231 667.463 903.439 663.099C910.288 640.487 918.344 617.875 922.373 594.469C927.207 567.493 940.903 551.625 970.713 548.848C989.244 561.146 1011.4 563.923 1034.36 557.972C1042.42 555.989 1050.47 551.228 1056.52 545.674C1066.99 535.36 1064.98 522.269 1052.89 513.541C1030.33 496.88 1006.97 492.913 979.575 511.558C975.95 529.41 963.059 541.311 936.875 543.294C945.334 521.476 951.377 501.244 961.045 482.995C972.324 461.573 1006.16 455.226 1029.93 456.019C1063.77 457.606 1100.43 461.573 1129.43 436.978C1136.28 431.027 1146.35 420.316 1144.74 413.969C1141.11 399.687 1133.46 384.216 1116.54 381.042C1105.66 379.059 1093.58 379.455 1083.1 382.629C1068.6 386.993 1054.91 394.53 1041.21 402.068C1035.17 405.638 1027.51 411.589 1026.3 417.142C1023.48 433.804 1010.59 438.564 997.703 444.118C991.661 446.895 985.618 449.275 976.353 450.466C980.381 444.118 983.604 437.771 988.035 431.82C1010.59 400.084 1040.81 375.488 1071.83 352.876C1083.1 344.546 1098.01 339.785 1111.71 336.215C1135.07 330.264 1172.94 285.437 1170.92 255.287C1170.12 242.593 1157.63 227.121 1144.34 223.154C1132.25 219.584 1124.19 227.121 1116.14 234.659C1084.72 264.411 1077.06 285.04 1084.72 326.694Z" fill="#57092C"/>
<path d="M803.36 55.4381C803.993 39.8626 815.722 35.8782 826.163 30.9027C826.668 27.3711 827.38 23.8948 827.93 21.0222C828.768 20.3832 829.245 19.4324 829.921 19.3972C847.99 19.9104 866.394 13.3955 883.731 24.066C885.848 25.2785 889.379 25.359 891.775 24.705C909.638 20.2024 927.348 15.4433 944.959 10.2264C947.823 9.48181 949.985 6.39287 952.652 4.7327C956.625 2.34306 960.148 -1.67657 966.822 0.753349C965.443 3.4046 964.38 5.70873 962.947 8.56122C972.879 26.9591 969.866 46.4285 966.341 65.3294C971.285 69.2383 975.401 72.926 979.886 76.0652C996.944 88.6022 994.408 112.081 982.056 125.82C980.164 127.903 974.597 128.789 971.805 127.611C964.05 124.246 958.987 126.56 954.149 132.169C951.257 135.495 947.383 138.342 943.464 140.53C936.933 144.178 932.178 142.045 931.008 134.83C929.497 125.584 929.958 116.433 924.753 107.709C923.529 105.656 926.385 100.812 927.98 97.3556C930.954 91.2482 933.828 84.6829 937.937 79.31C941.045 75.1797 945.865 71.2908 950.613 69.3238C956.819 66.8838 959.504 63.5031 959.677 57.0787C959.94 47.012 961.293 37.0207 961.763 27.0093C962.089 20.8415 960.432 15.4384 953.894 10.0252C947.785 17.8833 940.443 24.5492 935.991 32.8501C919.033 64.5544 909.325 98.1957 911.948 134.7C912.352 140.631 911.874 146.542 911.908 153.022C920.249 155.034 924.445 160.9 928.633 167.627C932.054 173.07 937.512 177.547 941.664 182.754C945.509 187.448 948.94 192.031 947.777 198.838C945.675 210.786 942.27 213.543 926.777 215.012C925.822 216.914 924.605 218.961 923.803 221.12C919.477 232.258 909.172 234.25 899.173 236.755C897.921 237.284 896.264 236.841 895.021 236.509C878.565 230.819 866.886 210.66 871.528 194.214C874.278 184.812 877.964 175.228 882.937 166.635C885.109 162.686 890.748 159.879 895.343 157.655C903.486 153.792 907.18 148.308 905.146 139.353C900.97 121.846 903.955 104.957 908.498 88.0535C909.959 82.6202 910.176 76.8548 911.015 71.2555C909.979 70.9788 908.997 70.5009 907.962 70.2242C900.447 83.3144 892.932 96.4047 885.624 109.55C883.452 113.499 881.848 117.816 880.505 121.986C878.081 130.182 874.674 137.899 877.483 147.277C879.589 154.31 879.452 162.253 870.777 167.269C867.903 168.874 866.452 173.447 864.911 176.702C860.451 185.863 854.549 193.777 845.505 199.341C833.793 206.565 823.705 202.792 820.312 189.807C819.763 187.719 819.628 185.742 819.089 182.794C808.685 179.368 797.553 176.179 794.682 162.902C792.063 150.34 797.136 142.205 807.325 136.515C811.769 119.154 819.597 115.637 836.089 122.847C838.259 123.858 840.736 125.382 842.97 125.332C849.465 125.126 854.634 127.369 859.579 131.278C861.587 132.893 864.596 133.266 868.27 134.463C869.821 130.348 871.623 126.947 872.182 123.214C875.545 104.917 885.367 89.8545 896.17 75.2701C908.919 58.4017 921.308 41.2213 934.642 22.9997C931.111 22.9191 928.778 22.5116 926.644 23.0197C916.438 25.4697 906.123 28.3222 895.764 30.5156C889.882 31.7482 886.422 34.7063 885.268 40.6527C884.502 44.3303 883.474 48.1537 882.294 51.7206C881.699 53.9342 880.941 56.7515 879.419 58.2859C872.175 65.4095 865.292 72.8451 857.076 78.6305C851.319 82.7005 843.564 84.2952 836.582 86.3126C830.592 87.9476 826.431 83.6009 822.838 79.6215C816.426 72.0853 810.078 63.4875 803.36 55.4381Z" fill="#57092C"/>
<path d="M617.542 317.428C617.542 327.123 617.542 335.711 617.542 344.298C618.103 345.129 618.945 345.683 619.507 346.514C638.876 322.968 666.386 314.381 693.335 304.686C700.914 312.442 698.107 319.921 692.774 326.015C674.527 347.345 655.719 367.844 624.84 370.614C617.261 371.445 615.015 376.708 614.734 383.356C614.454 394.991 614.734 406.348 614.734 418.814C623.156 409.672 630.735 400.531 639.157 392.498C653.473 378.37 672.281 371.999 690.809 366.182C699.791 363.412 705.687 369.783 702.318 378.647C699.511 386.403 695.019 393.606 689.966 400.254C673.966 421.861 653.473 438.204 627.086 446.238C623.156 447.346 619.226 449.285 614.454 450.947C613.331 463.412 611.927 475.324 610.804 487.512C611.646 487.789 612.489 488.066 613.331 488.343C626.805 476.155 639.718 462.858 654.315 451.778C669.193 440.697 686.036 432.941 703.441 428.232C712.424 432.941 712.424 438.204 708.494 444.853C687.721 482.249 659.649 510.781 615.857 521.03C613.05 521.584 610.524 522.415 607.436 523.246C602.944 539.867 602.102 557.595 590.873 572C590.873 569.23 590.312 566.183 590.873 563.413C594.242 544.022 598.172 524.354 601.26 504.964C603.506 491.944 600.979 490.005 587.786 485.573C568.135 478.925 548.205 471.722 529.116 463.135C521.817 459.811 515.641 453.44 509.466 447.9C504.413 443.19 502.167 437.373 505.816 428.509C544.836 419.645 572.346 444.576 604.348 465.905C605.471 445.13 606.594 426.847 607.436 409.118C604.067 407.456 602.944 406.348 601.821 406.625C579.083 408.564 559.995 398.038 540.906 388.897C533.046 385.295 526.589 378.924 520.414 372.553C515.361 367.567 512.834 360.919 518.168 352.054C530.519 350.946 542.871 354.824 555.222 358.425C558.872 359.534 561.96 361.473 565.609 362.581C581.329 367.013 596.488 372.83 606.594 387.512C606.594 370.337 606.594 353.162 606.594 334.603C593.119 332.664 580.206 330.725 567.574 328.508C550.45 325.461 536.976 315.212 523.221 306.071C520.414 304.132 518.729 297.483 519.852 294.159C520.975 291.112 526.87 288.342 530.8 288.342C553.538 287.511 575.434 290.558 595.926 300.807C597.611 301.638 599.295 302.47 600.979 303.024C601.821 303.301 602.664 303.024 604.629 303.301C609.962 293.605 605.471 284.187 603.225 273.938C585.259 269.782 567.574 266.181 550.17 261.472C541.748 259.256 533.888 255.101 525.747 251.5C518.729 248.453 516.203 243.189 519.291 233.771C547.082 226.846 574.311 229.062 601.541 246.514C599.856 232.386 598.734 220.752 597.33 208.286C593.119 207.455 589.47 206.901 586.101 206.07C563.363 201.361 540.344 197.206 517.887 191.666C507.501 189.45 506.658 186.956 508.343 175.045C522.098 169.782 550.17 171.444 592.558 180.031C591.154 170.336 589.751 161.195 588.066 150.391C565.048 154.823 544.555 150.114 524.905 140.419C517.887 137.095 509.746 136.264 502.167 134.325C498.518 124.352 503.851 119.089 512.273 118.812C525.747 117.981 539.222 118.258 552.696 119.643C563.083 120.751 573.188 124.075 584.698 126.845C584.136 116.319 581.61 109.671 572.908 103.854C552.415 90.5571 533.607 75.5986 526.589 50.3907C524.905 44.0195 523.221 37.9252 531.362 31C536.414 34.0471 543.152 36.2632 547.643 40.9724C559.433 53.4378 570.662 66.1802 581.329 79.7537C584.978 84.1859 586.663 90.5571 587.786 96.3743C590.593 111.61 592.558 127.122 595.084 144.297C602.944 139.034 608.839 134.048 615.857 130.446C631.858 122.136 647.859 113.549 664.702 106.901C674.527 103.023 676.492 105.516 679.861 116.319C660.491 144.02 633.262 159.256 598.734 163.965C601.541 179.2 604.067 193.605 606.874 209.671C613.05 204.408 618.664 199.699 623.998 194.99C637.472 183.355 651.789 173.106 669.193 168.397C674.808 166.735 681.545 164.519 685.475 171.167C689.124 177.538 685.475 182.524 680.983 186.956C672.562 195.544 664.14 204.131 655.158 212.164C642.525 223.522 629.051 233.217 609.12 232.386C611.366 253.993 613.331 273.938 615.577 295.544C620.349 290.281 624.279 286.126 628.209 281.694C642.806 265.627 661.895 257.04 682.668 252.331C686.879 251.5 691.931 253.716 696.423 254.547C695.581 259.256 695.861 264.796 693.335 268.397C678.457 291.943 658.807 309.395 629.893 314.104C626.244 314.658 622.594 316.043 617.542 317.428Z" fill="#57092C"/>
<path d="M321.783 403.17C325.08 397.773 327.762 393.779 330.559 389.369C313.853 367.221 303.025 341.679 279.897 325.684C276.176 322.941 274.637 317.191 271.682 313.307C256.676 294.72 237.233 280.79 214.68 273.198C203.043 269.085 192.092 264.927 182.718 256.713C173.95 249.547 164.531 243.106 154.204 235.093C171.466 223.031 189.129 234.495 205.836 227.644C221.324 221.148 240.13 222.867 256.979 218.73C273.142 214.638 292.09 219.072 305.852 205.885C294.313 177.26 256.67 162.658 228.759 171.086C201.268 179.621 181.022 195.154 164.442 217.653C157.778 227.09 144.901 228.236 132.553 221.041C121.344 214.585 110.751 206.726 96.9247 197.589C103.399 197.694 107.326 196.475 109.872 197.8C132.567 208.106 149.757 194.687 166.716 182.101C176.532 175.036 186.01 166.769 194.65 158.287C200.271 152.596 206.356 145.24 202.2 136.808C198.383 129.579 190.583 127.793 182.39 129.03C151.908 133.003 126.373 147.396 104.771 168.602C89.9754 183.084 78.8435 186.017 59.5678 177.93C47.477 173.032 35.2349 167.872 22.8061 161.771C45.0504 160.807 62.9171 149.793 81.0864 139.303C97.6526 129.738 109.323 116.013 120.236 100.978C122.036 98.5412 123.115 95.4728 123.926 92.5587C127.983 77.9882 122.028 71.9932 107.271 76.6698C80.9991 84.8503 57.6372 98.6877 35.4855 114.621C19.9784 126.02 4.9251 138.205 -10.3954 150.544C-17.9988 147.247 -25.1837 144.059 -33.7754 140.285C4.25298 125.317 24.7894 94.244 47.6757 66.0073C52.0765 60.6714 53.4418 52.5462 56.0175 46.5172C45.6555 37.8258 36.7771 39.1086 28.5294 44.5692C7.64297 58.3748 -13.2435 72.1805 -33.676 86.7723C-41.7724 92.4949 -48.9258 100.468 -54.9749 108.502C-70.0576 128.041 -74.7866 129.723 -97.7225 122.701C-100.803 121.685 -103.848 121.347 -107.045 120.747C-107.544 121.734 -108.043 122.721 -108.658 124.124C-100.716 128.623 -92.8911 133.538 -84.38 138.407C-85.1914 141.321 -85.4684 143.926 -86.8849 145.792C-97.4154 160.257 -95.9515 175.134 -89.5012 190.626C-84.1452 203.605 -79.3236 216.892 -73.7005 229.717C-62.4188 256.045 -42.5063 276.342 -25.9161 298.907C-23.6822 302.159 -18.741 304.547 -14.2889 305.47C-4.54796 307.533 2.32839 302.165 0.844894 292.191C-2.82359 266.708 -7.17776 241.272 -19.6539 218.428C-29.7095 199.777 -40.5667 181.589 -51.4239 163.401C-55.6245 156.742 -61.0098 151.117 -65.2458 143.78C-30.9107 147.715 -2.80553 166.775 27.4215 179.021C32.2174 189.179 28.8305 198.122 24.5711 206.171C19.465 216.456 18.2058 226.616 21.3633 237.022C34.7592 277.502 44.379 319.463 70.8931 355.514C72.9501 355.375 75.96 355.034 78.6673 354.17C81.1075 353.46 83.5476 352.75 87.3237 351.269C94.1331 334.061 92.4923 315.792 89.7827 298.141C87.0377 279.811 81.9685 261.775 71.3688 245.884C62.8516 232.983 59.5625 217.413 46.6189 206.718C42.0254 203.082 42.8661 192.814 40.3944 182.362C50.2061 185.781 58.1219 187.15 64.7724 190.647C82.7476 200.184 100.188 210.029 117.397 220.707C130.921 229.32 130.724 230.831 133.051 249.053C119.066 260.621 117.707 276.778 122.251 292.672C131.154 323.518 138.836 354.719 155.442 382.864C159.83 390.463 160.743 400.068 163.26 408.747C175.351 413.645 178.512 413.567 181.944 402.851C185.76 391.564 187.18 379.214 187.799 367.328C189.403 337.403 179.957 309.317 172.718 281.353C170.166 271.996 160.828 264.46 154.464 255.906C151.811 252.546 149.578 249.294 146.925 245.934C148.11 244.9 149.027 244.021 150.212 242.988C162.737 253.575 176.296 262.867 187.369 274.641C201.362 289.621 212.985 306.668 226.176 322.111C250.93 350.794 278.169 376.993 310.343 397.547C312.924 399.551 316.993 401.044 321.783 403.17Z" fill="#57092C"/>
<path d="M151.623 670C162.213 659.818 162.645 646.879 163.726 634.576C164.374 626.091 161.781 617.182 162.213 608.697C163.293 590.03 165.238 571.576 167.183 552.909C168.912 536.576 173.018 521.091 180.798 506.455C197.655 500.515 213.647 493.091 227.046 481C235.258 473.364 239.364 462.97 241.309 452.152C243.038 443.242 244.118 434.121 245.631 425C247.144 416.939 244.118 411.636 234.394 407.606C219.482 418.424 203.922 429.667 188.578 441.121C176.476 450.242 173.45 463.606 171.722 477.394C170.857 485.03 172.37 492.879 171.505 500.303C170.641 507.515 168.048 514.515 165.887 521.727C163.726 529.152 161.564 536.364 158.971 544.636C157.891 542.939 156.81 541.879 156.378 540.394C153.136 524.909 149.678 509.424 147.301 493.727C146.437 488 147.95 481.848 148.598 475.909C150.975 457.667 148.598 440.909 134.551 427.121C126.555 419.273 118.342 411.212 111.427 402.303C104.944 394.03 99.7569 384.697 93.922 375.788C89.1676 368.152 88.9514 368.152 77.9298 370.061C76.4171 377.061 74.0398 384.485 73.6076 392.121C72.311 419.909 75.9848 446.212 98.4603 466.788C107.969 475.485 117.046 484.394 129.148 489.697C131.957 490.97 134.983 493.303 136.063 495.848C143.627 512.606 148.166 530.424 149.678 548.879C149.678 549.515 149.03 549.939 147.949 552.061C141.682 542.727 136.28 533.818 130.228 525.121C125.906 519.182 122.016 512.394 116.397 508.152C102.782 497.97 88.7353 488.212 74.0398 479.515C62.8021 472.939 50.2677 468.061 38.1656 462.758C32.7628 460.424 27.144 461.485 23.4701 465.939C20.0123 470.182 18.4996 475.061 21.9573 480.576C30.8178 493.515 38.5978 506.879 47.4583 519.606C55.6705 531.273 66.9082 539.97 80.0909 546.545C88.3031 550.576 96.5153 552.061 105.16 549.091C130.877 540.182 147.949 552.909 153.784 581.333C154.001 581.97 154.217 582.818 154.217 583.455C154.649 606.576 158.107 629.909 150.975 652.606C148.814 658.333 147.085 664.273 151.623 670Z" fill="#57092C"/>
<path d="M220.714 39.406C227.694 37.0187 235.705 33.8357 244.746 34.9725C252.871 35.9956 257.678 40.7701 257.678 48.7277C257.678 54.7526 255.275 57.2536 249.209 57.822C247.95 57.9356 246.692 58.0493 244.059 58.2767C247.493 60.3229 249.896 61.6871 252.185 63.0512C256.762 65.5521 259.623 69.5309 261.454 74.1917C262.828 77.6021 261.454 80.4441 259.051 82.8313C256.877 82.8313 254.817 82.8313 252.757 82.8313C250.926 82.7176 249.095 82.604 246.692 82.3766C247.264 83.9681 247.493 85.2186 248.065 86.2417C249.781 89.311 249.324 92.153 247.149 94.6539C245.089 97.0412 241.198 97.4959 237.765 96.1318C235.362 95.2223 232.844 94.4266 230.555 93.5171C228.724 96.8138 227.351 99.7695 225.52 102.384C221.629 107.954 214.19 108.068 210.185 102.611C208.697 100.679 207.896 98.2917 206.866 96.1318C205.836 93.8582 204.921 91.5846 203.891 89.4247C203.662 88.8563 203.09 88.2879 201.602 88.1742C202.632 91.1299 203.776 93.9719 204.692 97.0412C205.607 100.224 207.438 103.748 204.234 106.59C201.144 109.205 197.711 107.613 194.507 106.363C188.327 103.976 185.924 99.4284 185.695 92.9488C185.351 84.9912 186.954 77.6021 189.7 70.3267C191.302 66.0069 191.874 61.346 192.904 56.9125C193.362 56.9125 193.82 56.9125 194.163 56.9125C193.362 55.5484 192.447 54.1842 191.417 52.5927C192.447 51.0012 193.248 49.2961 194.278 47.8182C197.368 43.6121 198.169 38.9513 195.422 34.5178C188.899 23.9457 183.177 12.9188 172.992 4.73393C167.384 0.300447 163.035 -5.61087 158.229 -10.9538C158 -11.2948 158.114 -11.9769 158 -13C163.035 -11.4085 165.782 -7.42973 169.101 -4.24671C172.305 -1.0637 175.624 2.00562 178.714 5.41599C181.918 8.94004 184.894 12.5778 187.869 16.2155C191.531 20.7626 194.964 25.5372 198.512 30.198C201.831 34.5178 206.408 36.4503 211.673 37.2461C214.305 37.3598 216.937 38.3829 220.714 39.406Z" fill="#57092C"/>
<path d="M748 73.3694C745.17 73.6242 743.497 73.7516 741.053 73.879C741.053 76.9363 741.053 80.121 741.053 84.0701C738.737 82.9236 737.064 82.1592 735.392 81.3949C733.205 83.051 731.146 84.707 728.316 87C727.93 84.3248 727.287 82.7962 727.544 81.2675C728.573 73.3694 724.199 68.9108 717.638 66.1083C710.176 63.051 703.357 58.8471 698.726 52.3503C694.351 46.2357 690.878 39.3567 687.147 32.7325C687.79 19.3567 683.673 5.72611 689.72 -7.26752C691.392 -10.8344 691.392 -13.8917 689.463 -17.4586C685.474 -24.7197 682.901 -32.4904 682.001 -40.8981C681.1 -48.6688 679.17 -56.3121 678.141 -63.9554C677.755 -66.8854 678.27 -69.9427 678.398 -73C678.784 -73 679.299 -73 679.685 -73C681.872 -61.9172 683.673 -50.707 686.246 -39.7516C688.047 -31.9809 690.492 -24.3376 693.322 -16.6943C694.223 -14.2739 696.41 -11.8535 698.597 -10.5796C714.679 -1.66242 724.456 11.8408 729.345 29.0382C731.79 37.5732 733.719 46.2357 735.135 54.8981C736.293 61.9045 738.351 67.5096 745.556 70.1847C746.07 70.6943 746.585 71.8408 748 73.3694Z" fill="#57092C"/>
<path d="M470.155 457.575C468.755 447.684 466.693 437.83 465.956 427.903C463.631 398.69 461.307 369.477 459.485 340.135C458.584 325.259 459.008 310.311 458.86 295.24C458.8 288.241 460.874 283.118 466.26 277.815C485.009 259.617 492.088 228.92 476.271 205.351C471.206 197.756 466.663 189.621 461.799 181.3C464.422 171.854 463.573 162.495 455.237 154.261C445.915 162.335 439.543 149.546 428.153 151.139C423.108 156.219 416.406 163.077 409 170.79C411.985 173.796 415.452 177.083 418.828 180.528C426.041 188.108 426.056 191.071 421.147 200.029C417.706 206.044 414.908 212.432 412.43 219.008C404.049 241.138 414.708 265.5 432.77 277.292C448.747 287.869 451.746 302.069 452.334 318.24C452.738 329.872 452.319 341.446 451.65 353.086C450.776 373.681 454.378 393.93 455.993 414.288C457.165 428.689 462.624 441.579 465.985 455.145C466.265 456.152 467.367 457.216 467.988 458C468.74 457.806 469.493 457.611 470.155 457.575Z" fill="#57092C"/>
</g>
<path d="M1160 562.232V650H0V564.445C83.4535 486.185 312.152 430 581.202 430C847.711 430 1074.63 485.129 1160 562.232Z" fill="black"/>
<path d="M470 238.002C418.614 226.14 361.852 223.237 350.427 224.283L236.5 230.002C154.5 243.502 60.5337 317.005 34.2599 369.76C-18.934 476.101 32.1679 563.955 148 566.002C180.596 566.578 183.507 511.178 177.58 479.098C251.603 458.141 341.193 442.85 439.961 435.302C490.5 475.002 593 444.26 593 369.76C593 298.76 521.385 249.865 470 238.002Z" fill="#754315"/>
<path d="M1136.5 418.499C1117.5 356.999 962.5 275 934 263C838.93 237.237 773.881 314.438 745.35 358.725C738.096 369.984 719.049 370.354 710.286 360.225C691.449 338.449 659.752 315.846 621.5 343.999C570.563 381.489 655.5 500.999 688.5 518.999C714.9 533.399 801 497.5 812.5 445C860.5 452 881.5 453.5 953 473.5C946.778 484.508 949.261 516.132 960.887 528.737C961.903 529.839 963.188 530.641 964.563 531.237C994.546 544.231 1027.99 538.446 1048 537.499C1103 533.499 1155.5 479.999 1136.5 418.499Z" fill="#A73E76"/>
<path d="M387.796 126.992C398.406 163.132 374.975 173.422 361.934 174.049C332.314 193.499 267.372 230.768 244.56 224.243C216.046 216.087 212.73 206.048 211.404 184.088C162.996 159.618 204.682 130.456 190.788 111.466C167.321 79.3918 220.745 37.1349 252.201 52.9178C259.191 17.7885 334.584 12.6973 346.682 48.5641C380.501 46.0544 406.363 93.1113 387.796 126.992Z" fill="black"/>
<path d="M368.887 127.647C387.072 182.13 369.133 247.393 329.374 239.172C319.127 263.422 360.935 300.001 308.469 300.001C276.599 300.001 248.697 279.791 231.077 264.15C224.182 258.029 224.475 247.245 230.275 240.081C241.116 226.691 251.998 210.19 252.929 189.501C223.912 191.001 218.962 163.07 227.633 149.132C238.166 132.203 251.319 149.573 259.071 159.949C261.024 162.563 266.262 162.112 268.179 159.472C270.987 155.606 274.148 150.149 274 142.001C273.772 129.385 293.531 136.501 304 121.001C315.031 124.001 344.5 116.501 348.5 90.0156C355.103 95.2764 361.938 106.825 368.887 127.647Z" fill="#FBB583"/>
<path d="M382 468C399.673 468 414 470.239 414 473C418 483 427 507.1 427 523.5C427 541.485 410.963 556.432 389.855 559.446C389.855 559.446 386.46 575.367 388.19 576.096C389.921 576.825 391 577.857 391 579C391 579.984 390.2 580.886 388.873 581.582C387.547 582.279 393.745 590.021 402.891 590.928C412.037 591.834 418 593.32 418 595C418 597.761 401.882 600 382 600C362.118 600 346 597.761 346 595C346 593.32 351.963 591.834 361.109 590.928C370.255 590.021 376.453 582.279 375.127 581.582C373.8 580.886 373 579.984 373 579C373 577.857 374.079 576.825 375.81 576.096C377.54 575.367 374.145 559.446 374.145 559.446C353.037 556.432 337 541.485 337 523.5C337 514.3 345.333 486 350 473C350 470.239 364.327 468 382 468Z" fill="#FFF4E2"/>
<path d="M382.5 551C403.211 551 420 539.807 420 526C420 518.054 416.789 511.316 414 507H350.031C347.479 510.743 345 516.941 345 526C345 539.807 361.789 551 382.5 551Z" fill="#FFA76D"/>
<path d="M382 514C399.673 514 414 510.866 414 507C414 503.134 399.673 500 382 500C364.327 500 350 503.134 350 507C350 510.866 364.327 514 382 514Z" fill="#AA5C30"/>
<path d="M244.161 389.333L244.206 386.924C244.206 386.924 262.573 383.461 269.893 378.299C276.327 373.766 280.71 369.846 286.224 370.294C293.292 364.15 347.381 305.539 363.869 297.274C380.357 289.008 386.648 295.925 376.473 308.259C366.298 320.592 304.58 358.361 295.738 378.972C290.222 391.735 287.337 399.347 242.596 403.54L242.72 401C242.72 401 268.557 396.286 268.06 393.596C268.044 392.379 244.155 396.534 244.155 396.534L244.229 393.736C244.229 393.736 267.09 388.708 266.895 387.104C266.701 385.5 244.161 389.333 244.161 389.333Z" fill="black"/>
<path d="M408.341 340.86C415.665 347.031 426.375 345.222 436.352 343.517C439.774 342.932 443.039 344.93 443.83 348.243C446.467 359.288 450.654 384.303 440.736 404.014C437.276 410.928 419.863 397.24 412.143 401.063C391.787 412.128 361.5 394.997 358 389.997C354.5 384.997 352.5 384.997 341 385.997C329.5 386.997 326 377.497 334 370.997C320 374.997 315 368.997 317.5 364.497C320 359.997 346 352.997 358 350.497C354.5 345.997 337.5 348.243 333 350.497C332 355.997 326.5 361.497 317.5 360.997C313 360.997 315.5 345.497 319.5 338.997C323.5 332.497 345 331.497 352.5 328.997C347 322.997 340 326.997 334 328.997C328 330.997 320 332.997 319.5 328.997C319 321.497 334 314.997 346 309.497C357.955 304.018 374.872 316.9 381.921 319.963C381.976 319.987 382.032 320.004 382.09 320.018C399.5 324.03 399.365 333.646 408.341 340.86Z" fill="#FBB583"/>
<path d="M863.648 75.7014C810.098 61.0759 800.091 93.3062 801.781 111.25C773.384 91.9521 746 152.892 746 235.161C746 317.429 795.696 322.508 830.179 318.445C864.662 314.382 896.958 238.303 920.5 279.5C925.558 288.352 962.921 294.682 980.5 293.5C1004.63 291.878 1017.12 328.924 1027 293.5C1047.5 220 960.929 207.877 966 151C971.071 94.1229 930.586 93.9834 863.648 75.7014Z" fill="black"/>
<path d="M788.113 167.643C769.928 222.126 787.867 287.389 827.626 279.169C837.873 303.418 796.065 339.997 848.531 339.997C880.401 339.997 908.303 319.787 925.923 304.146C932.818 298.026 932.525 287.241 926.725 280.077C915.884 266.687 905.002 250.186 904.071 229.498C913.5 229.498 928.15 225.774 921 210.998C913.937 196.401 905.022 205.222 899.487 210.137C898.85 210.703 898.048 211.029 897.196 211.046C889.201 211.206 846.53 210.013 827.626 167.643C806.722 120.789 810.843 99.5393 788.113 167.643Z" fill="#FFC5AE"/>
<path d="M800 434C781.775 434 767 436.239 767 439V609C767 611.761 781.775 614 800 614C818.225 614 833 611.761 833 609V439C833 436.239 818.225 434 800 434Z" fill="#A9AEAC"/>
<path d="M775 459H825V558C825 571.807 813.807 583 800 583C786.193 583 775 571.807 775 558V459Z" fill="#25BE7C"/>
<path d="M800 462C813.807 462 825 460.657 825 459C825 457.343 813.807 456 800 456C786.193 456 775 457.343 775 459C775 460.657 786.193 462 800 462Z" fill="#9ADBB1"/>
<path fill-rule="evenodd" clip-rule="evenodd" d="M812.635 491.839C806.972 490.997 802.626 486.114 802.626 480.216C802.626 477.496 803.551 474.992 805.102 473C810.766 473.841 815.111 478.725 815.111 484.623C815.111 487.343 814.187 489.847 812.635 491.839Z" fill="#CE9E21"/>
<path fill-rule="evenodd" clip-rule="evenodd" d="M818.568 549.73C818.564 553.787 816.457 557.733 812.69 559.907C808.924 562.082 804.453 561.934 800.938 559.909C800.941 555.851 803.048 551.906 806.815 549.731C810.582 547.556 815.052 547.704 818.568 549.73Z" fill="#CE9E21"/>
<path fill-rule="evenodd" clip-rule="evenodd" d="M785.672 517.776C792.162 517.776 797.423 512.515 797.423 506.025C797.423 503.902 796.86 501.91 795.875 500.192C795.186 500.066 794.476 500 793.751 500C787.261 500 782 505.261 782 511.751C782 513.874 782.563 515.865 783.548 517.584C784.237 517.71 784.947 517.776 785.672 517.776Z" fill="#CE9E21"/>
<path d="M782 492L802 402" stroke="#AABE2E" stroke-width="2" stroke-miterlimit="10" stroke-linejoin="round"/>
<path d="M803.5 403C807.642 403 811 399.642 811 395.5C811 391.358 807.642 388 803.5 388C799.358 388 796 391.358 796 395.5C796 399.642 799.358 403 803.5 403Z" stroke="#AABE2E" stroke-width="2" stroke-miterlimit="10" stroke-linejoin="round"/>
<path d="M820.053 532C817.135 526.947 812.33 523.26 806.694 521.75C801.058 520.239 795.053 521.03 790 523.947C784.947 526.865 781.26 531.67 779.75 537.306C778.239 542.942 779.03 548.947 781.947 554L801 543L820.053 532Z" fill="#AABE2E"/>
<path d="M815.722 534.5C813.468 530.595 809.755 527.746 805.4 526.579C801.045 525.412 796.405 526.023 792.5 528.278C788.595 530.532 785.746 534.245 784.579 538.6C783.412 542.955 784.023 547.595 786.278 551.5L801 543L815.722 534.5Z" fill="#9ADBB1"/>
<path d="M804.464 541C803.934 540.081 803.06 539.411 802.035 539.136C801.011 538.862 799.919 539.005 799 539.536C798.081 540.066 797.411 540.94 797.136 541.965C796.862 542.989 797.005 544.081 797.536 545L801 543L804.464 541Z" fill="#A9AEAC"/>
<path opacity="0.5" d="M801.237 498.996L792.732 503.906C791.775 504.458 791.448 505.681 792 506.638L796.91 515.143C797.463 516.099 798.686 516.427 799.642 515.875L808.147 510.965C809.104 510.412 809.431 509.189 808.879 508.233L803.969 499.728C803.417 498.771 802.193 498.443 801.237 498.996Z" fill="black"/>
<path opacity="0.5" d="M818.147 486.91L809.642 482C808.686 481.448 807.462 481.775 806.91 482.732L802 491.237C801.448 492.193 801.775 493.417 802.732 493.969L811.237 498.879C812.193 499.431 813.417 499.104 813.969 498.147L818.879 489.642C819.431 488.686 819.104 487.463 818.147 486.91Z" fill="black"/>
<path opacity="0.5" d="M818.147 519.91L809.642 515C808.686 514.448 807.462 514.775 806.91 515.732L802 524.237C801.448 525.193 801.775 526.417 802.732 526.969L811.237 531.879C812.193 532.431 813.417 532.104 813.969 531.147L818.879 522.642C819.431 521.686 819.104 520.463 818.147 519.91Z" fill="black"/>
<path opacity="0.5" d="M800.086 474.128L790.31 473.191C789.211 473.085 788.234 473.891 788.128 474.991L787.191 484.767C787.086 485.866 787.892 486.843 788.991 486.948L798.767 487.885C799.867 487.991 800.844 487.185 800.949 486.085L801.886 476.31C801.991 475.21 801.185 474.233 800.086 474.128Z" fill="black"/>
<path opacity="0.5" d="M793.237 575.996L784.732 571.086C783.775 570.534 783.448 569.311 784 568.354L788.91 559.849C789.463 558.893 790.686 558.565 791.642 559.117L800.147 564.027C801.104 564.58 801.431 565.803 800.879 566.759L795.969 575.264C795.417 576.221 794.193 576.549 793.237 575.996Z" fill="black"/>
<path d="M363 203.673C354.046 199.853 345.091 206.539 344.096 206.539C340.117 202.718 330.764 199.471 325.193 201.763C323.203 214.18 337.132 218 344.096 218C351.061 218 358.025 214.18 363 203.673Z" fill="#AA5C30"/>
<path d="M798.014 244.244C798.242 242.049 807.641 241.293 809.967 246.557C812.707 241.293 828.206 238.91 835 243.26C827 251 827.907 259 811.187 259C804.704 259 801.955 252.428 801.27 248.819C800.39 247.883 797.786 246.439 798.014 244.244Z" fill="#EF7E77"/>
<path d="M362.707 154.499C367.013 153.485 371.855 153.863 375 157.071L372.151 159.792C371.749 159.383 364.5 156 356.5 162.067L353.365 159.671C356.126 156.151 358.347 155.525 362.707 154.499Z" fill="black"/>
<path d="M315.2 156.442C310.775 156.563 306.197 158.165 304 162.067L307.466 163.968C307.746 163.47 313.573 157.873 325.787 163.479L328.187 160.365C324.597 157.67 319.68 156.32 315.2 156.442Z" fill="black"/>
<path d="M352.501 141.075C353.812 140.151 369.335 133.827 377.001 139.502C379.04 141.011 381.001 142.502 380.001 146.737C374.409 143.279 362.103 145.885 353.938 147.721C348.501 148.943 349.001 142.502 352.501 141.075Z" fill="black"/>
<path d="M328.41 141.075C323.691 139.096 306.166 136.457 298 143.502C295.49 145.667 293.5 150.002 295 154.002C301.363 150.725 316.71 146.762 326 148.502C334.704 150.132 331.975 142.169 328.41 141.075Z" fill="black"/>
<path d="M793.964 194.51C789.621 193.474 784.736 193.86 781.562 197.139L784.437 199.92C785.505 198.817 787.074 198.172 788.961 198.027C787.769 198.941 787 200.379 787 201.998C787 204.759 789.239 206.998 792 206.998C794.761 206.998 797 204.759 797 201.998C797 201.115 796.771 200.285 796.37 199.566C798.763 200.675 800.933 202.303 802.419 204.222L805.581 201.773C802.795 198.175 798.361 195.559 793.964 194.51Z" fill="black"/>
<path d="M838 208.998C835.239 208.998 833 206.759 833 203.998C833 202.379 833.769 200.941 834.961 200.027C833.074 200.172 831.505 200.817 830.437 201.92L827.562 199.139C830.736 195.86 835.621 195.474 839.964 196.51C844.361 197.559 848.795 200.175 851.581 203.773L848.419 206.222C846.933 204.303 844.763 202.675 842.37 201.566C842.771 202.285 843 203.115 843 203.998C843 206.759 840.761 208.998 838 208.998Z" fill="black"/>
<path d="M801.137 180.09C799.478 178.921 784.434 170.834 777 186.736C782.592 183.278 791.535 184.9 799.7 186.736C807.35 188.456 802.797 181.26 801.137 180.09Z" fill="black"/>
<path d="M832.397 180.028C838.566 177.44 853.541 178.931 862 194C855.637 190.723 844.097 185.715 834.807 187.455C826.102 189.085 828.832 181.122 832.397 180.028Z" fill="black"/>
<path d="M941.341 428.86C948.665 435.031 959.375 433.223 969.352 431.517C972.774 430.933 976.039 432.931 976.83 436.243C979.467 447.288 983.654 472.303 973.736 492.014C970.276 498.928 950.22 473.175 942.5 476.997C919.643 484.563 917 473.497 907.5 471.997C898 470.497 892 478.497 886 483.497C880 488.497 870 486.497 870.5 481.497C870.9 477.497 885 466.497 892 461.497C889.167 460.83 882 459.597 876 459.997C868.5 460.497 860.5 474.497 850.5 479.997C842.5 484.397 839.5 479.164 839 475.997C838.667 477.664 832.5 479.622 828 478.497C818 475.997 823 465.497 828 461.497C832 458.297 851.333 440.177 860.5 431.517C855.833 431.517 845.5 432.213 841.5 434.997C836.5 438.477 822.5 444.997 819 440.997C815.5 436.997 816 431.517 839 419.997C870.665 404.137 896.5 401.997 912 406.497C927.5 410.997 932.35 421.633 941.341 428.86Z" fill="#FFC5AE"/>
<path d="M178.659 470.191C164.819 478.053 160.625 474.553 150.648 472.848C147.226 472.263 143.961 474.261 143.17 477.573C140.533 488.619 136.346 513.634 146.264 533.344C149.724 540.258 167.137 526.571 174.857 530.393C185.281 535.488 203.908 535.279 213.788 533.64C216.046 533.265 218.721 534.516 220.534 535.912C225.435 539.687 235.256 543.406 235.256 544.998C235.256 547.043 232.901 554.93 226.424 550.84C219.947 546.751 210.82 552.593 213.47 554.93C216.12 557.266 236.434 565.738 246.149 568.074C255.865 570.411 257.925 565.153 259.398 561.356C265.286 561.064 267.641 548.503 265.874 532.729C266.758 537.403 273.529 544.706 275.001 557.559C276.473 570.411 288.838 582.096 287.955 570.703C287.072 559.311 284.422 530.1 278.239 522.223C272.057 514.346 252.921 497.092 240.556 485.328C232 477.573 192.5 462.328 178.659 470.191Z" fill="#FBB583"/>
<path fill-rule="evenodd" clip-rule="evenodd" d="M686.405 356.68C684.7 346.703 682.891 335.993 689.062 328.669C689.385 328.267 689.714 327.858 690.05 327.442C697.228 318.527 707.17 306.181 712.425 292.328C713.019 291.139 713.78 289.817 714.628 288.342C719.49 279.89 727.256 266.389 723.425 243.828C722.911 240.804 722.424 237.813 721.945 234.871C718.224 212.039 714.998 192.244 703.925 183.828C691.425 174.328 671.425 167.328 664.425 171.328C660.425 178.328 664.425 186.828 671.425 185.328C673.825 186.128 676.425 190.328 677.425 192.328C675.425 194.328 671.425 199.228 671.425 202.828C666.925 199.328 659.925 199.828 657.425 204.828C652.425 202.828 640.925 206.328 640.425 213.828C640.025 219.828 641.925 226.995 642.925 229.828C637.381 229.661 626.807 232.228 628.859 243.828C631.425 258.328 639.925 256.828 642.925 252.328C642.925 254.011 642.886 255.517 642.85 256.89C642.705 262.451 642.618 265.818 645.425 269.828C646.456 271.302 644.219 274.19 640.911 278.461C632.993 288.684 618.939 306.83 628.859 332.472C630.671 336.13 628.55 341.964 626.553 347.46C624.336 353.561 622.271 359.244 625.908 361.064C645.619 370.982 670.634 366.795 681.679 364.158C684.992 363.367 686.99 360.102 686.405 356.68ZM691.19 216.45C688.425 212.828 686.916 207.598 686.141 203.074C686.603 209.636 681.396 213.492 678.735 214.6C681.941 221.239 689.13 233.91 692.247 231.487C696.142 228.458 693.954 220.071 691.19 216.45Z" fill="#FFC5AE"/>
<path d="M583.091 202.35L584.192 200.206C584.192 200.206 602.21 205.174 611.054 203.758C618.826 202.517 624.487 200.924 629.242 203.751C638.292 201.343 712.646 172.495 731.09 172.324C749.533 172.153 752.14 181.132 737.577 187.733C723.015 194.334 650.976 201.109 633.969 215.73C623.402 224.765 617.463 230.333 575.438 214.421L576.667 212.195C576.667 212.195 601.943 219.324 602.681 216.69C603.201 215.59 579.919 208.814 579.919 208.814L581.216 206.334C581.216 206.334 603.958 211.874 604.489 210.347C605.021 208.821 583.091 202.35 583.091 202.35Z" fill="black"/>
<path d="M348.27 169C348.27 169 356.379 182.169 353.304 188.754C350.228 195.339 341 192.3 341 192.3" stroke="#57092C" stroke-width="4" stroke-miterlimit="10" stroke-linejoin="round"/>
<path d="M808.16 205C808.16 205 806.233 216.618 807.347 225.246C808.46 233.875 819 230.24 819 230.24" stroke="#463F3B" stroke-width="4" stroke-miterlimit="10" stroke-linejoin="round"/>
<path d="M626.506 405H626.494C624.762 405 623.237 405.881 622.339 407.218C621.073 406.22 619.347 405.852 617.697 406.387L617.685 406.391C616.036 406.927 614.856 408.238 614.417 409.791C612.904 409.235 611.151 409.421 609.749 410.44L609.739 410.448C608.339 411.467 607.624 413.076 607.685 414.685C606.076 414.624 604.467 415.339 603.448 416.739L603.44 416.749C602.421 418.151 602.235 419.904 602.791 421.417C601.238 421.856 599.927 423.036 599.391 424.685L599.387 424.697C598.852 426.347 599.22 428.073 600.218 429.339C598.881 430.237 598 431.762 598 433.494V433.506C598 435.238 598.881 436.763 600.218 437.661C599.22 438.927 598.852 440.653 599.387 442.303L599.391 442.315C599.927 443.964 601.238 445.144 602.791 445.583C602.235 447.096 602.421 448.849 603.44 450.251L603.448 450.261C604.467 451.661 606.076 452.376 607.685 452.315C607.624 453.924 608.339 455.533 609.739 456.552L609.749 456.56C611.151 457.579 612.904 457.765 614.417 457.209C614.856 458.762 616.036 460.073 617.685 460.609L617.697 460.613C619.347 461.148 621.073 460.78 622.339 459.782C623.237 461.119 624.762 462 626.494 462H626.506C628.238 462 629.763 461.119 630.661 459.782C631.927 460.78 633.653 461.148 635.303 460.613L635.315 460.609C636.964 460.073 638.144 458.762 638.583 457.209C640.096 457.765 641.849 457.579 643.251 456.56L643.261 456.552C644.661 455.533 645.376 453.924 645.315 452.315C646.924 452.376 648.533 451.661 649.552 450.261L649.56 450.251C650.579 448.849 650.765 447.096 650.209 445.583C651.762 445.144 653.073 443.964 653.609 442.315L653.613 442.303C654.148 440.653 653.78 438.927 652.782 437.661C654.119 436.763 655 435.238 655 433.506V433.494C655 431.762 654.119 430.237 652.782 429.339C653.78 428.073 654.148 426.347 653.613 424.697L653.609 424.685C653.073 423.036 651.762 421.856 650.209 421.417C650.765 419.904 650.579 418.151 649.56 416.749L649.552 416.739C648.533 415.339 646.924 414.624 645.315 414.685C645.376 413.076 644.661 411.467 643.261 410.448L643.251 410.44C641.849 409.421 640.096 409.235 638.583 409.791C638.144 408.238 636.964 406.927 635.315 406.391L635.303 406.387C633.653 405.852 631.927 406.22 630.661 407.218C629.763 405.881 628.238 405 626.506 405Z" fill="#AA5C30"/>
<path d="M512.506 394H512.494C510.762 394 509.237 394.881 508.339 396.218C507.073 395.22 505.347 394.852 503.697 395.387L503.685 395.391C502.036 395.927 500.856 397.238 500.417 398.791C498.904 398.235 497.151 398.421 495.749 399.44L495.739 399.448C494.339 400.467 493.624 402.076 493.685 403.685C492.076 403.624 490.467 404.339 489.448 405.739L489.44 405.749C488.421 407.151 488.235 408.904 488.791 410.417C487.238 410.856 485.927 412.036 485.391 413.685L485.387 413.697C484.852 415.347 485.22 417.073 486.218 418.339C484.881 419.237 484 420.762 484 422.494V422.506C484 424.238 484.881 425.763 486.218 426.661C485.22 427.927 484.852 429.653 485.387 431.303L485.391 431.315C485.927 432.964 487.238 434.144 488.791 434.583C488.235 436.096 488.421 437.849 489.44 439.251L489.448 439.261C490.467 440.661 492.076 441.376 493.685 441.315C493.624 442.924 494.339 444.533 495.739 445.552L495.749 445.56C497.151 446.579 498.904 446.765 500.417 446.209C500.856 447.762 502.036 449.073 503.685 449.609L503.697 449.613C505.347 450.148 507.073 449.78 508.339 448.782C509.237 450.119 510.762 451 512.494 451H512.506C514.238 451 515.763 450.119 516.661 448.782C517.927 449.78 519.653 450.148 521.303 449.613L521.315 449.609C522.964 449.073 524.144 447.762 524.583 446.209C526.096 446.765 527.849 446.579 529.251 445.56L529.261 445.552C530.661 444.533 531.376 442.924 531.315 441.315C532.924 441.376 534.533 440.661 535.552 439.261L535.56 439.251C536.579 437.849 536.765 436.096 536.209 434.583C537.762 434.144 539.073 432.964 539.609 431.315L539.613 431.303C540.148 429.653 539.78 427.927 538.782 426.661C540.119 425.763 541 424.238 541 422.506V422.494C541 420.762 540.119 419.237 538.782 418.339C539.78 417.073 540.148 415.347 539.613 413.697L539.609 413.685C539.073 412.036 537.762 410.856 536.209 410.417C536.765 408.904 536.579 407.151 535.56 405.749L535.552 405.739C534.533 404.339 532.924 403.624 531.315 403.685C531.376 402.076 530.661 400.467 529.261 399.448L529.251 399.44C527.849 398.421 526.096 398.235 524.583 398.791C524.144 397.238 522.964 395.927 521.315 395.391L521.303 395.387C519.653 394.852 517.927 395.22 516.661 396.218C515.763 394.881 514.238 394 512.506 394Z" fill="#AA5C30"/>
<path d="M580 510C645.722 510 699 499.703 699 487C699 474.297 645.722 464 580 464C514.278 464 461 474.297 461 487C461 499.703 514.278 510 580 510Z" fill="#0C1616"/>
<path d="M580 585C613.689 585 641 574.703 641 562C641 549.297 613.689 539 580 539C546.311 539 519 549.297 519 562C519 574.703 546.311 585 580 585Z" fill="black"/>
<path d="M571.158 520.774C576.037 520.344 580.742 519.31 585.199 517.747C595.329 534.67 613.842 546 635 546C667.033 546 693 520.033 693 488C693 455.967 667.033 430 635 430C623.611 430 611.887 425.751 603.144 418.453C593.082 410.054 580.131 405 566 405C551.847 405 538.878 410.069 528.809 418.491C521.658 424.474 513.312 429.22 504.529 432.349C482.074 440.35 466 461.798 466 487C466 519.033 491.967 545 524 545C543.432 545 560.633 535.443 571.158 520.774Z" fill="#FFCF87"/>
<path d="M659.5 510C662.167 501.833 664.2 483.9 651 477.5C634.5 469.5 600.5 471 589.5 458C578.5 445 557.5 422.685 535 434.685M632.5 511C635.167 506.667 637.7 496.9 626.5 492.5C612.5 487 582.5 492 571.5 475C560.5 458 546 436.998 519.5 443.498M499.665 455.5C489.165 455.667 468.7 465 469.5 503M573 515.5C572.5 514.5 552.5 510 547 487.5C540.835 462.281 509 466 506 486C503.6 502 511 509.333 515 511M625.709 539C652.379 539 674 517.453 674 490.872C674 464.292 652.379 442.745 625.709 442.745C616.223 442.745 606.46 439.206 599.163 433.144C590.789 426.186 580.015 422 568.26 422C557.359 422 547.302 425.6 539.22 431.671C531.777 437.262 523.409 442.011 514.806 445.567C497.308 452.798 485 469.988 485 490.043C485 516.623 506.62 538.17 533.291 538.17" stroke="#FFF0BD" stroke-width="6" stroke-miterlimit="10" stroke-linejoin="round"/>
<g style="mix-blend-mode:multiply">
<path d="M603.144 418.453C593.082 410.054 580.131 405 566 405C551.847 405 538.878 410.069 528.809 418.491C521.658 424.474 513.314 429.219 504.531 432.348C493.658 436.222 484.281 443.249 477.5 452.328C487 463.885 520.9 487 580.5 487C640.1 487 672.157 463.885 680.736 452.328C670.121 438.737 653.581 430 635 430C623.611 430 611.887 425.751 603.144 418.453Z" fill="#FFA76D"/>
</g>
<path d="M580 510C645.722 510 699 499.703 699 487C699 530.968 645.722 573 580 573C514.278 573 461 530.968 461 487C461 499.703 514.278 510 580 510Z" fill="#0C1616"/>
<path d="M580 510C645.722 510 699 499.703 699 487C699 520.961 667.215 553.766 622.46 566.941C555.239 565.495 500.089 537.849 489.024 501.827C510.853 506.825 543.508 510 580 510Z" fill="black"/>
<path d="M557.506 440H557.494C555.762 440 554.237 440.881 553.339 442.218C552.073 441.22 550.347 440.852 548.697 441.387L548.685 441.391C547.036 441.927 545.856 443.238 545.417 444.791C543.904 444.235 542.151 444.421 540.749 445.44L540.739 445.448C539.339 446.467 538.624 448.076 538.685 449.685C537.076 449.624 535.467 450.339 534.448 451.739L534.44 451.749C533.421 453.151 533.235 454.904 533.791 456.417C532.238 456.856 530.927 458.036 530.391 459.685L530.387 459.697C529.852 461.347 530.22 463.073 531.218 464.339C529.881 465.237 529 466.762 529 468.494V468.506C529 470.238 529.881 471.763 531.218 472.661C530.22 473.927 529.852 475.653 530.387 477.303L530.391 477.315C530.927 478.964 532.238 480.144 533.791 480.583C533.235 482.096 533.421 483.849 534.44 485.251L534.448 485.261C535.467 486.661 537.076 487.376 538.685 487.315C538.624 488.924 539.339 490.533 540.739 491.552L540.749 491.56C542.151 492.579 543.904 492.765 545.417 492.209C545.856 493.762 547.036 495.073 548.685 495.609L548.697 495.613C550.347 496.148 552.073 495.78 553.339 494.782C554.237 496.119 555.762 497 557.494 497H557.506C559.238 497 560.763 496.119 561.661 494.782C562.927 495.78 564.653 496.148 566.303 495.613L566.315 495.609C567.964 495.073 569.144 493.762 569.583 492.209C571.096 492.765 572.849 492.579 574.251 491.56L574.261 491.552C575.661 490.533 576.376 488.924 576.315 487.315C577.924 487.376 579.533 486.661 580.552 485.261L580.56 485.251C581.579 483.849 581.765 482.096 581.209 480.583C582.762 480.144 584.073 478.964 584.609 477.315L584.613 477.303C585.148 475.653 584.78 473.927 583.782 472.661C585.119 471.763 586 470.238 586 468.506V468.494C586 466.762 585.119 465.237 583.782 464.339C584.78 463.073 585.148 461.347 584.613 459.697L584.609 459.685C584.073 458.036 582.762 456.856 581.209 456.417C581.765 454.904 581.579 453.151 580.56 451.749L580.552 451.739C579.533 450.339 577.924 449.624 576.315 449.685C576.376 448.076 575.661 446.467 574.261 445.448L574.251 445.44C572.849 444.421 571.096 444.235 569.583 444.791C569.144 443.238 567.964 441.927 566.315 441.391L566.303 441.387C564.653 440.852 562.927 441.22 561.661 442.218C560.763 440.881 559.238 440 557.506 440Z" fill="#AA5C30"/>
<path d="M574.385 430.384C575.51 426.436 574.578 422.092 571.556 419.07C568.535 416.049 564.19 415.117 560.243 416.242C559.118 420.19 560.049 424.534 563.071 427.556C566.093 430.577 570.437 431.509 574.385 430.384Z" fill="#233317"/>
<path d="M580 427.194C583.522 429.302 587.96 429.526 591.66 427.39C595.361 425.253 597.385 421.298 597.321 417.194C593.798 415.086 589.361 414.861 585.66 416.998C581.96 419.134 579.935 423.089 580 427.194Z" fill="#233317"/>
<path d="M588.196 449.322C590.304 445.8 590.529 441.362 588.392 437.662C586.256 433.961 582.301 431.937 578.196 432.002C576.088 435.524 575.864 439.961 578 443.662C580.137 447.362 584.092 449.387 588.196 449.322Z" fill="#233317"/>
<path d="M516 418C517.657 418 519 416.657 519 415C519 413.343 517.657 412 516 412C514.343 412 513 413.343 513 415C513 416.657 514.343 418 516 418Z" fill="#FF9E76"/>
<path d="M497 425C498.657 425 500 423.657 500 422C500 420.343 498.657 419 497 419C495.343 419 494 420.343 494 422C494 423.657 495.343 425 497 425Z" fill="#FF9E76"/>
<path d="M503 415C504.657 415 506 413.657 506 412C506 410.343 504.657 409 503 409C501.343 409 500 410.343 500 412C500 413.657 501.343 415 503 415Z" fill="#FF9E76"/>
<path d="M570 461C571.657 461 573 459.657 573 458C573 456.343 571.657 455 570 455C568.343 455 567 456.343 567 458C567 459.657 568.343 461 570 461Z" fill="#FF9E76"/>
<path d="M572 471C573.657 471 575 469.657 575 468C575 466.343 573.657 465 572 465C570.343 465 569 466.343 569 468C569 469.657 570.343 471 572 471Z" fill="#FF9E76"/>
<path d="M622 421C623.657 421 625 419.657 625 418C625 416.343 623.657 415 622 415C620.343 415 619 416.343 619 418C619 419.657 620.343 421 622 421Z" fill="#FF9E76"/>
<path d="M635 419C636.657 419 638 417.657 638 416C638 414.343 636.657 413 635 413C633.343 413 632 414.343 632 416C632 417.657 633.343 419 635 419Z" fill="#FF9E76"/>
<path d="M555 467C556.657 467 558 465.657 558 464C558 462.343 556.657 461 555 461C553.343 461 552 462.343 552 464C552 465.657 553.343 467 555 467Z" fill="#FF9E76"/>
<path d="M580 107.5C651.797 107.5 710 94.0685 710 77.5C710 60.9315 651.797 47.5 580 47.5C508.203 47.5 450 60.9315 450 77.5C450 94.0685 508.203 107.5 580 107.5Z" fill="black"/>
<g style="mix-blend-mode:hard-light" opacity="0.5">
<path d="M516.202 32.5H647.702L1078.56 526.54C1079.81 527.972 1079.89 530.02 1078.59 531.403C1063.35 547.584 959.796 640 582.452 640C205.084 640 101.54 547.572 86.3109 531.4C85.0095 530.018 85.0968 527.972 86.343 526.54L516.202 32.5Z" fill="url(#paint0_radial_1_1203)"/>
</g>
<path d="M580 115C603.472 115 622.5 95.9721 622.5 72.5C622.5 49.0279 603.472 30 580 30C556.528 30 537.5 49.0279 537.5 72.5C537.5 95.9721 556.528 115 580 115Z" fill="#FFCF87"/>
<path d="M450 77.5C450 26.4137 508.203 -15 580 -15C651.797 -15 710 26.4137 710 77.5C710 60.9315 651.797 47.5 580 47.5C508.203 47.5 450 60.9315 450 77.5Z" fill="black"/>
<path d="M521.146 -5C478.925 10.2796 450 41.4863 450 77.5C450 65.4779 480.643 55.1075 524.888 50.3214C528.912 26.7175 542.595 9.72888 549.577 1.05964C552.102 -2.07424 553.75 -4.12095 553.75 -5H521.146Z" fill="#754315"/>
</g>
</g>
<defs>
<radialGradient id="paint0_radial_1_1203" cx="0" cy="0" r="1" gradientUnits="userSpaceOnUse" gradientTransform="translate(582.452 73) rotate(90) scale(561 979.326)">
<stop stop-color="#F7BD4E"/>
<stop offset="0.505208" stop-color="#FDE0B3"/>
<stop offset="1" stop-color="white" stop-opacity="0"/>
</radialGradient>
<clipPath id="clip0_1_1203">
<rect width="1160" height="650" fill="white"/>
</clipPath>
</defs>
</svg>
