<svg width="200" height="200" viewBox="0 0 200 200" fill="none" xmlns="http://www.w3.org/2000/svg">
<path d="M37.5 175C34.0278 175 31.075 173.783 28.6417 171.35C26.2084 168.917 24.9945 165.967 25 162.5V146.667L58.3334 117.083V175H37.5ZM66.6667 175V141.667H133.333V175H66.6667ZM141.667 175V106.667L106.042 75L131.25 52.7083L170.833 87.9167C172.222 89.1667 173.264 90.5917 173.958 92.1917C174.653 93.7917 175 95.4917 175 97.2917V162.5C175 165.972 173.783 168.925 171.35 171.358C168.917 173.792 165.967 175.006 162.5 175H141.667ZM25 135.417V97.2917C25 95.4861 25.3472 93.75 26.0417 92.0833C26.7361 90.4167 27.7778 89.0278 29.1667 87.9167L91.6667 32.5C92.7778 31.3889 94.0639 30.5917 95.525 30.1083C96.9861 29.625 98.4778 29.3806 100 29.375C101.528 29.375 103.019 29.6194 104.475 30.1083C105.931 30.5972 107.217 31.3944 108.333 32.5L125 47.2917L25 135.417Z" fill="#775030"/>
</svg>
