<svg width="1465" height="1107" viewBox="0 0 1465 1107" fill="none" xmlns="http://www.w3.org/2000/svg">
<circle cx="898" cy="554" r="499.5" fill="#57092C" stroke="#57092C"/>
<path d="M94.7896 324.853V74.8603C94.7896 69.3351 95.7883 64.0362 97.566 60.1293C99.3436 56.2224 101.755 54.0275 104.269 54.0275C106.783 54.0275 109.194 56.2224 110.971 60.1293C112.749 64.0362 113.748 69.3351 113.748 74.8603V324.853C113.748 330.379 112.749 335.677 110.971 339.584C109.194 343.491 106.783 345.686 104.269 345.686C101.755 345.686 99.3436 343.491 97.566 339.584C95.7883 335.677 94.7896 330.379 94.7896 324.853ZM417.074 74.8603V1033.17C417.074 1038.69 416.076 1043.99 414.298 1047.9C412.52 1051.81 410.109 1054 407.595 1054C405.081 1054 402.67 1051.81 400.893 1047.9C399.115 1043.99 398.116 1038.69 398.116 1033.17V762.341H274.89C272.376 762.341 269.965 760.146 268.187 756.24C266.41 752.333 265.411 747.034 265.411 741.509C266.283 643.35 271.932 545.679 282.26 450.162C304.701 245.897 346.74 109.495 403.851 55.6941C405.294 54.3306 406.869 53.7765 408.433 54.0815C409.998 54.3865 411.503 55.5411 412.814 57.4415C414.125 59.342 415.201 61.9286 415.945 64.9691C416.688 68.0095 417.076 71.4084 417.074 74.8603ZM398.116 108.505C299.18 232.825 286.288 625.626 284.606 720.676H398.116V108.505ZM189.579 71.4228C189.164 65.9667 187.78 61.0962 185.732 57.8828C183.683 54.6694 181.137 53.3762 178.655 54.2879C176.172 55.1996 173.956 58.2413 172.494 62.744C171.032 67.2467 170.444 72.8415 170.858 78.2977L189.816 326.52C189.816 376.247 180.828 423.937 164.829 459.099C148.83 494.261 127.131 514.015 104.506 514.015C81.8798 514.015 60.1807 494.261 44.1818 459.099C28.183 423.937 19.1949 376.247 19.1949 326.52L38.1528 78.2977C38.3582 75.5961 38.3195 72.832 38.0388 70.1633C37.7582 67.4946 37.2411 64.9735 36.5171 62.744C35.7932 60.5145 34.8765 58.6202 33.8194 57.1693C32.7624 55.7184 31.5856 54.7393 30.3564 54.2879C29.1271 53.8365 27.8695 53.9216 26.6552 54.5385C25.441 55.1553 24.2939 56.2917 23.2794 57.8828C22.265 59.4739 21.4031 61.4886 20.7429 63.8118C20.0828 66.135 19.6373 68.7212 19.4319 71.4228L0.47395 321.416C0.279356 322.536 0.120977 323.684 0 324.853C0.0369096 381.997 9.77333 437.054 27.3045 479.253C44.8356 521.453 68.8999 547.759 94.7896 553.024V1033.17C94.7896 1038.69 95.7883 1043.99 97.566 1047.9C99.3436 1051.81 101.755 1054 104.269 1054C106.783 1054 109.194 1051.81 110.971 1047.9C112.749 1043.99 113.748 1038.69 113.748 1033.17V553.024C139.637 547.759 163.702 521.453 181.233 479.253C198.764 437.054 208.5 381.997 208.537 324.853C208.572 323.709 208.572 322.56 208.537 321.416L189.579 71.4228Z" fill="black"/>
<circle cx="749" cy="226" r="50" fill="#FED0E5" fill-opacity="0.13"/>
<circle cx="848" cy="199" r="50" fill="#FED0E5" fill-opacity="0.13"/>
<circle cx="951" cy="199" r="50" fill="#FED0E5" fill-opacity="0.13"/>
<circle cx="1043" cy="226" r="50" fill="#FED0E5" fill-opacity="0.13"/>
<ellipse cx="1129" cy="287" rx="60" ry="50" fill="#FED0E5" fill-opacity="0.13"/>
<circle cx="667" cy="276" r="50" fill="#FED0E5" fill-opacity="0.13"/>
<circle cx="599" cy="352" r="50" fill="#FED0E5" fill-opacity="0.13"/>
<circle cx="549" cy="439" r="50" fill="#FED0E5" fill-opacity="0.13"/>
<circle cx="531" cy="539" r="50" fill="#FED0E5" fill-opacity="0.13"/>
<circle cx="549" cy="639" r="50" fill="#FED0E5" fill-opacity="0.13"/>
<circle cx="591" cy="726" r="50" fill="#FED0E5" fill-opacity="0.13"/>
<circle cx="641" cy="810" r="50" fill="#FED0E5" fill-opacity="0.13"/>
<circle cx="717" cy="879" r="50" fill="#FED0E5" fill-opacity="0.13"/>
<circle cx="810" cy="902" r="50" fill="#FED0E5" fill-opacity="0.13"/>
<circle cx="910" cy="910" r="50" fill="#FED0E5" fill-opacity="0.13"/>
<circle cx="1010" cy="902" r="50" fill="#FED0E5" fill-opacity="0.13"/>
<circle cx="1103" cy="872" r="50" fill="#FED0E5" fill-opacity="0.13"/>
<circle cx="1173" cy="810" r="50" fill="#FED0E5" fill-opacity="0.13"/>
<circle cx="1235" cy="739" r="50" fill="#FED0E5" fill-opacity="0.13"/>
<circle cx="1260" cy="639" r="50" fill="#FED0E5" fill-opacity="0.13"/>
<circle cx="1273" cy="539" r="50" fill="#FED0E5" fill-opacity="0.13"/>
<circle cx="1260" cy="439" r="50" fill="#FED0E5" fill-opacity="0.13"/>
<ellipse cx="1205" cy="352" rx="55" ry="50" fill="#FED0E5" fill-opacity="0.13"/>
<ellipse cx="900.5" cy="556.5" rx="369.5" ry="365.5" fill="#B06286" fill-opacity="0.96"/>
<path d="M771.064 514.544L772.856 525.936C766.2 525.936 760.269 524.272 755.064 520.944C749.859 517.701 745.677 511.813 742.52 503.28H741.752C730.915 503.28 722.637 499.739 716.92 492.656C711.288 485.488 708.472 475.675 708.472 463.216V453.616C708.472 441.243 711.288 431.515 716.92 424.432C722.637 417.264 730.915 413.68 741.752 413.68C752.419 413.68 760.611 417.264 766.328 424.432C772.131 431.515 775.032 441.243 775.032 453.616V463.216C775.032 474.565 772.6 483.739 767.736 490.736C762.957 497.648 756.088 501.701 747.128 502.896C749.091 507.419 751.949 510.491 755.704 512.112C759.459 513.733 764.579 514.544 771.064 514.544ZM762.872 447.216C762.872 436.549 761.08 428.997 757.496 424.56C753.912 420.037 748.664 417.776 741.752 417.776C734.755 417.776 729.464 420.037 725.88 424.56C722.381 428.997 720.632 436.549 720.632 447.216V469.616C720.632 480.283 722.381 487.877 725.88 492.4C729.464 496.923 734.755 499.184 741.752 499.184C748.664 499.184 753.912 496.923 757.496 492.4C761.08 487.877 762.872 480.283 762.872 469.616V447.216ZM842.356 418.416V414.96H866.804V418.416L859.764 419.056C858.399 419.227 857.588 419.568 857.332 420.08C857.076 420.592 856.948 422.341 856.948 425.328V472.432C856.948 482.16 854.687 489.755 850.164 495.216C845.727 500.592 838.9 503.28 829.684 503.28C819.615 503.28 811.892 500.336 806.516 494.448C801.225 488.56 798.58 480.453 798.58 470.128V425.328C798.58 422.341 798.452 420.592 798.196 420.08C797.94 419.568 797.129 419.227 795.764 419.056L788.724 418.416V414.96H819.572V418.416L812.532 419.056C811.167 419.227 810.356 419.568 810.1 420.08C809.844 420.592 809.716 422.341 809.716 425.328V472.048C809.716 481.179 811.423 487.963 814.836 492.4C818.335 496.837 823.625 499.056 830.708 499.056C837.876 499.056 843.252 496.795 846.836 492.272C850.42 487.749 852.212 481.179 852.212 472.56V425.328C852.212 422.341 852.084 420.592 851.828 420.08C851.572 419.568 850.761 419.227 849.396 419.056L842.356 418.416ZM877.269 418.416V414.96H908.117V418.416L901.077 419.056C899.712 419.227 898.901 419.568 898.645 420.08C898.389 420.592 898.261 422.341 898.261 425.328V491.632C898.261 494.619 898.389 496.368 898.645 496.88C898.901 497.392 899.712 497.733 901.077 497.904L908.117 498.672V502H877.269V498.672L884.309 497.904C885.674 497.733 886.485 497.392 886.741 496.88C886.997 496.368 887.125 494.619 887.125 491.632V425.328C887.125 422.341 886.997 420.592 886.741 420.08C886.485 419.568 885.674 419.227 884.309 419.056L877.269 418.416ZM957.002 503.28C946.165 503.28 937.887 499.653 932.17 492.4C926.538 485.147 923.722 475.419 923.722 463.216V453.616C923.722 445.595 924.917 438.597 927.306 432.624C929.781 426.651 933.407 422 938.186 418.672C942.965 415.344 948.81 413.68 955.722 413.68C962.122 413.68 967.413 414.96 971.594 417.52C975.775 419.995 978.805 423.28 980.682 427.376C982.559 431.387 983.157 435.781 982.474 440.56L971.466 443.248C972.405 435.056 971.466 428.784 968.65 424.432C965.834 419.995 961.525 417.776 955.722 417.776C949.237 417.776 944.287 420.08 940.874 424.688C937.546 429.296 935.882 436.805 935.882 447.216V469.616C935.882 480.112 937.674 487.664 941.258 492.272C944.842 496.88 950.175 499.184 957.258 499.184C960.074 499.184 962.762 498.715 965.322 497.776C967.882 496.752 970.058 495.045 971.85 492.656C973.642 490.267 974.751 486.939 975.178 482.672L983.114 484.72C981.237 491.547 977.909 496.368 973.13 499.184C968.437 501.915 963.061 503.28 957.002 503.28ZM995.394 418.288V414.96H1026.24V418.288L1019.2 419.056C1017.84 419.141 1017.03 419.483 1016.77 420.08C1016.51 420.592 1016.39 422.341 1016.39 425.328V462.96L1048.39 424.56C1050.52 422.085 1051.59 420.592 1051.59 420.08C1051.67 419.483 1050.99 419.141 1049.54 419.056L1043.01 418.288V414.96H1067.33V418.288L1060.8 419.056C1059.95 419.141 1059.27 419.312 1058.75 419.568C1058.24 419.739 1057.64 420.208 1056.96 420.976C1056.36 421.659 1055.34 422.853 1053.89 424.56L1033.92 448.624L1058.24 491.632C1059.35 493.595 1060.16 495.003 1060.67 495.856C1061.27 496.709 1061.87 497.264 1062.47 497.52C1063.06 497.691 1063.87 497.819 1064.9 497.904L1071.04 498.672V502H1051.07L1026.5 457.584L1016.39 469.616V491.632C1016.39 494.619 1016.51 496.368 1016.77 496.88C1017.03 497.392 1017.84 497.733 1019.2 497.904L1026.24 498.672V502H995.394V498.672L1002.43 497.904C1003.8 497.733 1004.61 497.392 1004.87 496.88C1005.12 496.368 1005.25 494.619 1005.25 491.632V425.328C1005.25 422.341 1005.12 420.592 1004.87 420.08C1004.61 419.483 1003.8 419.141 1002.43 419.056L995.394 418.288ZM705.144 571.416V567.96H740.728C749.091 567.96 755.491 569.965 759.928 573.976C764.451 577.901 766.712 583.149 766.712 589.72V593.688C766.712 598.893 765.261 603.331 762.36 607C759.544 610.584 755.491 613.059 750.2 614.424L766.584 644.632C767.693 646.68 768.504 648.131 769.016 648.984C769.528 649.752 769.997 650.264 770.424 650.52C770.936 650.691 771.619 650.819 772.472 650.904L778.232 651.672V655H758.904L738.68 615.576H726.136V644.632C726.136 647.619 726.264 649.368 726.52 649.88C726.776 650.392 727.587 650.733 728.952 650.904L735.992 651.672V655H705.144V651.672L712.184 650.904C713.549 650.733 714.36 650.392 714.616 649.88C714.872 649.368 715 647.619 715 644.632V578.328C715 575.341 714.872 573.592 714.616 573.08C714.36 572.568 713.549 572.227 712.184 572.056L705.144 571.416ZM740.728 572.056H726.136V611.48H740.728C745.165 611.48 748.621 610.072 751.096 607.256C753.656 604.355 754.936 600.003 754.936 594.2V589.208C754.936 583.405 753.656 579.096 751.096 576.28C748.621 573.464 745.165 572.056 740.728 572.056ZM843.128 634.136H846.456V655H785.144V651.672L792.184 650.904C793.549 650.733 794.36 650.392 794.616 649.88C794.872 649.368 795 647.619 795 644.632V578.328C795 575.341 794.872 573.592 794.616 573.08C794.36 572.568 793.549 572.227 792.184 572.056L785.144 571.416V567.96H844.792V588.824H841.592L837.88 575.384C837.624 574.36 837.325 573.635 836.984 573.208C836.728 572.696 836.173 572.397 835.32 572.312C834.467 572.141 833.016 572.056 830.968 572.056H806.136V609.048H823.288C825.336 609.048 826.787 609.005 827.64 608.92C828.493 608.749 829.048 608.451 829.304 608.024C829.645 607.512 829.944 606.744 830.2 605.72L832.632 596.12H835.96V626.072H832.632L830.2 616.472C829.944 615.448 829.645 614.723 829.304 614.296C829.048 613.784 828.493 613.485 827.64 613.4C826.787 613.229 825.336 613.144 823.288 613.144H806.136V650.904H832.504C834.552 650.904 836.003 650.861 836.856 650.776C837.709 650.605 838.264 650.307 838.52 649.88C838.861 649.368 839.16 648.6 839.416 647.576L843.128 634.136ZM896.002 656.28C885.165 656.28 876.887 652.653 871.17 645.4C865.538 638.147 862.722 628.419 862.722 616.216V606.616C862.722 598.595 863.917 591.597 866.306 585.624C868.781 579.651 872.407 575 877.186 571.672C881.965 568.344 887.81 566.68 894.722 566.68C901.122 566.68 906.413 567.96 910.594 570.52C914.775 572.995 917.805 576.28 919.682 580.376C921.559 584.387 922.157 588.781 921.474 593.56L910.466 596.248C911.405 588.056 910.466 581.784 907.65 577.432C904.834 572.995 900.525 570.776 894.722 570.776C888.237 570.776 883.287 573.08 879.874 577.688C876.546 582.296 874.882 589.805 874.882 600.216V622.616C874.882 633.112 876.674 640.664 880.258 645.272C883.842 649.88 889.175 652.184 896.258 652.184C899.074 652.184 901.762 651.715 904.322 650.776C906.882 649.752 909.058 648.045 910.85 645.656C912.642 643.267 913.751 639.939 914.178 635.672L922.114 637.72C920.237 644.547 916.909 649.368 912.13 652.184C907.437 654.915 902.061 656.28 896.002 656.28ZM934.394 571.416V567.96H965.242V571.416L958.202 572.056C956.837 572.227 956.026 572.568 955.77 573.08C955.514 573.592 955.386 575.341 955.386 578.328V644.632C955.386 647.619 955.514 649.368 955.77 649.88C956.026 650.392 956.837 650.733 958.202 650.904L965.242 651.672V655H934.394V651.672L941.434 650.904C942.799 650.733 943.61 650.392 943.866 649.88C944.122 649.368 944.25 647.619 944.25 644.632V578.328C944.25 575.341 944.122 573.592 943.866 573.08C943.61 572.568 942.799 572.227 941.434 572.056L934.394 571.416ZM977.519 571.416V567.96H1013.87C1022.32 567.96 1028.76 570.093 1033.2 574.36C1037.64 578.541 1039.86 584.131 1039.86 591.128V594.84C1039.86 601.837 1037.64 607.469 1033.2 611.736C1028.76 616.003 1022.32 618.136 1013.87 618.136H998.511V644.632C998.511 647.619 998.639 649.411 998.895 650.008C999.151 650.52 999.962 650.819 1001.33 650.904L1010.93 651.672V655H977.519V651.672L984.559 650.904C985.924 650.733 986.735 650.392 986.991 649.88C987.247 649.368 987.375 647.619 987.375 644.632V578.328C987.375 575.341 987.247 573.592 986.991 573.08C986.735 572.568 985.924 572.227 984.559 572.056L977.519 571.416ZM1013.87 572.056H998.511V614.04H1013.87C1023.34 614.04 1028.08 608.237 1028.08 596.632V589.336C1028.08 577.816 1023.34 572.056 1013.87 572.056ZM1109 634.136H1112.33V655H1051.02V651.672L1058.06 650.904C1059.42 650.733 1060.24 650.392 1060.49 649.88C1060.75 649.368 1060.88 647.619 1060.88 644.632V578.328C1060.88 575.341 1060.75 573.592 1060.49 573.08C1060.24 572.568 1059.42 572.227 1058.06 572.056L1051.02 571.416V567.96H1110.67V588.824H1107.47L1103.76 575.384C1103.5 574.36 1103.2 573.635 1102.86 573.208C1102.6 572.696 1102.05 572.397 1101.2 572.312C1100.34 572.141 1098.89 572.056 1096.84 572.056H1072.01V609.048H1089.16C1091.21 609.048 1092.66 609.005 1093.52 608.92C1094.37 608.749 1094.92 608.451 1095.18 608.024C1095.52 607.512 1095.82 606.744 1096.08 605.72L1098.51 596.12H1101.84V626.072H1098.51L1096.08 616.472C1095.82 615.448 1095.52 614.723 1095.18 614.296C1094.92 613.784 1094.37 613.485 1093.52 613.4C1092.66 613.229 1091.21 613.144 1089.16 613.144H1072.01V650.904H1098.38C1100.43 650.904 1101.88 650.861 1102.73 650.776C1103.58 650.605 1104.14 650.307 1104.4 649.88C1104.74 649.368 1105.04 648.6 1105.29 647.576L1109 634.136Z" fill="white"/>
</svg>
